<svg width="55" height="16" viewBox="0 0 55 16" fill="none" xmlns="http://www.w3.org/2000/svg">
<path d="M0.92 8.72H7.24L6.98 10H0.66L0.92 8.72ZM21.5611 15H14.9411L15.2211 13.72H17.5011L19.9011 2.44L17.4211 3.7L16.9411 2.7L20.2011 0.999999H22.3011L19.6011 13.72H21.8411L21.5611 15ZM36.2333 -1.19209e-06H37.5133L36.9533 2.6H30.8533L30.0533 6.4H31.2333C31.9799 6.4 32.6266 6.48667 33.1733 6.66C33.7199 6.82 34.1733 7.04667 34.5333 7.34C34.8933 7.63333 35.1599 7.98 35.3333 8.38C35.5066 8.78 35.5933 9.21333 35.5933 9.68C35.5933 10.4667 35.4733 11.2 35.2333 11.88C34.9933 12.5467 34.6133 13.1267 34.0933 13.62C33.5866 14.1133 32.9266 14.5 32.1133 14.78C31.2999 15.06 30.3266 15.2 29.1933 15.2C28.5799 15.2 27.9933 15.1333 27.4333 15C26.8733 14.8667 26.4133 14.6467 26.0533 14.34L26.5133 12.2H28.4333L28.0533 13.94C28.1866 13.9667 28.3799 14.0067 28.6333 14.06C28.8866 14.1 29.1466 14.12 29.4133 14.12C30.1733 14.12 30.8066 14 31.3133 13.76C31.8199 13.52 32.2199 13.2067 32.5133 12.82C32.8199 12.4333 33.0333 12 33.1533 11.52C33.2866 11.04 33.3533 10.5667 33.3533 10.1C33.3533 9.27333 33.0533 8.71333 32.4533 8.42C31.8533 8.11333 30.9866 7.96 29.8533 7.96H28.4333L29.9133 0.999999H35.6133L36.0933 0.599999L36.2333 -1.19209e-06ZM52.2455 0.66L53.0655 1.42L39.9255 15.14L39.1455 14.36L52.2455 0.66ZM38.1455 4.98C38.1455 4.36667 38.2788 3.80667 38.5455 3.3C38.8121 2.78 39.1655 2.33333 39.6055 1.96C40.0455 1.58667 40.5521 1.29333 41.1255 1.08C41.6988 0.866666 42.2988 0.76 42.9255 0.76C43.9521 0.76 44.7321 0.999999 45.2655 1.48C45.8121 1.96 46.0855 2.58 46.0855 3.34C46.0855 4.03333 45.9388 4.64667 45.6455 5.18C45.3655 5.7 44.9988 6.14 44.5455 6.5C44.0921 6.84667 43.5788 7.11333 43.0055 7.3C42.4455 7.47333 41.8855 7.56 41.3255 7.56C40.8855 7.56 40.4721 7.5 40.0855 7.38C39.6988 7.24667 39.3588 7.06667 39.0655 6.84C38.7855 6.61333 38.5588 6.34667 38.3855 6.04C38.2255 5.72 38.1455 5.36667 38.1455 4.98ZM40.0455 5.02C40.0455 5.24667 40.0721 5.46667 40.1255 5.68C40.1788 5.89333 40.2588 6.08667 40.3655 6.26C40.4855 6.42 40.6388 6.55333 40.8255 6.66C41.0121 6.75333 41.2388 6.8 41.5055 6.8C41.8255 6.8 42.1455 6.72667 42.4655 6.58C42.7855 6.43333 43.0721 6.20667 43.3255 5.9C43.5788 5.59333 43.7855 5.20667 43.9455 4.74C44.1055 4.27333 44.1855 3.72 44.1855 3.08C44.1855 2.88 44.1588 2.68667 44.1055 2.5C44.0655 2.31333 43.9921 2.14667 43.8855 2C43.7788 1.85333 43.6255 1.74 43.4255 1.66C43.2388 1.56667 43.0055 1.52 42.7255 1.52C42.4055 1.52 42.0855 1.61333 41.7655 1.8C41.4455 1.97333 41.1588 2.21333 40.9055 2.52C40.6521 2.82667 40.4455 3.2 40.2855 3.64C40.1255 4.06667 40.0455 4.52667 40.0455 5.02ZM46.1055 12.64C46.1055 12.0267 46.2388 11.4667 46.5055 10.96C46.7721 10.44 47.1255 9.99333 47.5655 9.62C48.0055 9.24667 48.5121 8.95333 49.0855 8.74C49.6588 8.52667 50.2588 8.42 50.8855 8.42C51.9121 8.42 52.6921 8.66 53.2255 9.14C53.7721 9.62 54.0455 10.24 54.0455 11C54.0455 11.6933 53.8988 12.3067 53.6055 12.84C53.3255 13.36 52.9588 13.8 52.5055 14.16C52.0521 14.5067 51.5388 14.7733 50.9655 14.96C50.4055 15.1333 49.8455 15.22 49.2855 15.22C48.8455 15.22 48.4321 15.1533 48.0455 15.02C47.6588 14.9 47.3188 14.7267 47.0255 14.5C46.7455 14.2733 46.5188 14.0067 46.3455 13.7C46.1855 13.38 46.1055 13.0267 46.1055 12.64ZM48.0055 12.68C48.0055 12.9067 48.0321 13.1267 48.0855 13.34C48.1388 13.5533 48.2188 13.7467 48.3255 13.92C48.4455 14.08 48.5988 14.2133 48.7855 14.32C48.9721 14.4133 49.1988 14.46 49.4655 14.46C49.7855 14.46 50.1055 14.3867 50.4255 14.24C50.7455 14.0933 51.0321 13.8667 51.2855 13.56C51.5388 13.2533 51.7455 12.8667 51.9055 12.4C52.0655 11.9333 52.1455 11.38 52.1455 10.74C52.1455 10.54 52.1188 10.3467 52.0655 10.16C52.0255 9.97333 51.9521 9.80667 51.8455 9.66C51.7388 9.51333 51.5855 9.4 51.3855 9.32C51.1988 9.22667 50.9655 9.18 50.6855 9.18C50.3655 9.18 50.0455 9.27333 49.7255 9.46C49.4055 9.63333 49.1188 9.87333 48.8655 10.18C48.6121 10.4867 48.4055 10.86 48.2455 11.3C48.0855 11.7267 48.0055 12.1867 48.0055 12.68Z" fill="#DC2E07"/>
</svg>
