<svg width="24" height="24" viewBox="0 0 24 24" fill="none" xmlns="http://www.w3.org/2000/svg">
<path d="M15.6815 4.00011L18.2726 4.00011C18.7307 4.00011 19.1701 4.17921 19.4941 4.49802C19.818 4.81683 20 5.24923 20 5.7001L20 11.6501C20 12.1009 19.818 12.5333 19.4941 12.8521C19.1701 13.1709 18.7307 13.35 18.2726 13.35L15.6815 13.35M9.63554 15.05L9.63554 18.45C9.63554 19.1263 9.90853 19.7749 10.3945 20.2531C10.8804 20.7313 11.5394 21 12.2267 21L15.6815 13.35L15.6815 4.00011L5.93888 4.00011C5.5223 3.99547 5.11804 4.13916 4.8006 4.4047C4.48317 4.67024 4.27394 5.03973 4.21147 5.4451L3.01956 13.095C2.98198 13.3387 2.99868 13.5875 3.0685 13.8241C3.13832 14.0608 3.25958 14.2797 3.4239 14.4657C3.58821 14.6516 3.79165 14.8002 4.0201 14.9011C4.24856 15.002 4.49658 15.0528 4.74697 15.05L9.63554 15.05Z" stroke="#FF8B66" strokeWidth="2" strokeLinecap="round" stroke-linejoin="round"/>
</svg>
