<svg width="184" height="46" viewBox="0 0 184 46" fill="none" xmlns="http://www.w3.org/2000/svg">
<path d="M92.9526 39.0524V6.89271H102.048V18.9296H110.49V26.5561H102.048V39.0524H92.9526ZM122.757 39.6956C120.207 39.6956 117.859 39.2821 115.714 38.4551C113.568 37.6282 111.687 36.4643 110.07 34.9635C108.484 33.4627 107.256 31.7016 106.386 29.6801C105.515 27.628 105.08 25.3922 105.08 22.9726C105.08 20.5529 105.515 18.3324 106.386 16.3109C107.256 14.2588 108.484 12.4824 110.07 10.9816C111.687 9.4808 113.568 8.31692 115.714 7.48996C117.859 6.66299 120.207 6.24951 122.757 6.24951C125.276 6.24951 127.608 6.66299 129.753 7.48996C131.93 8.31692 133.796 9.4808 135.35 10.9816C136.936 12.4824 138.164 14.2588 139.035 16.3109C139.906 18.3324 140.341 20.5529 140.341 22.9726C140.341 25.3922 139.906 27.628 139.035 29.6801C138.164 31.7016 136.936 33.4627 135.35 34.9635C133.796 36.4643 131.93 37.6282 129.753 38.4551C127.608 39.2821 125.276 39.6956 122.757 39.6956ZM122.71 32.161C123.892 32.161 124.98 31.9466 125.975 31.5178C126.97 31.089 127.841 30.4765 128.587 29.6801C129.365 28.8838 129.955 27.919 130.36 26.7858C130.795 25.6525 131.013 24.3815 131.013 22.9726C131.013 21.5637 130.795 20.2926 130.36 19.1593C129.955 18.0261 129.365 17.0613 128.587 16.265C127.841 15.4686 126.97 14.8561 125.975 14.4273C124.98 13.9985 123.907 13.7841 122.757 13.7841C121.575 13.7841 120.487 13.9985 119.492 14.4273C118.497 14.8561 117.611 15.4686 116.833 16.265C116.087 17.0613 115.496 18.0261 115.061 19.1593C114.657 20.2926 114.455 21.5637 114.455 22.9726C114.455 24.3815 114.657 25.6525 115.061 26.7858C115.496 27.919 116.087 28.8838 116.833 29.6801C117.611 30.4765 118.497 31.089 119.492 31.5178C120.487 31.9466 121.56 32.161 122.71 32.161Z" fill="#DC2E07"/>
<path d="M146.033 39.0524V6.89271H153.636L167.116 28.7613H163.104L176.304 6.89271H183.907L184 39.0524H175.465L175.418 19.6188H176.864L167.022 35.8824H162.918L152.797 19.6188H154.522V39.0524H146.033Z" fill="#DC2E07"/>
<path d="M83.3894 6.91163V39.0525L77.7629 26.1185L72.699 14.5205L72.0707 13.0802L70.5703 9.65006C74.6067 7.84105 78.9738 6.90812 83.3894 6.91163Z" fill="#17D1FA"/>
<path d="M55.0961 39.0525H50.7588C50.753 34.7875 51.5936 30.5635 53.2326 26.6234C54.8715 22.6834 57.2762 19.1052 60.3084 16.0947L63.0397 18.8159L64.1552 19.889L83.3891 39.0525H55.0961Z" fill="#DC2E07"/>
<path fill-rule="evenodd" clip-rule="evenodd" d="M23.3503 46C23.3036 33.3131 12.8673 23.0426 0 23.0426C12.896 23.0426 23.3503 12.726 23.3503 0C23.3967 12.6869 33.8332 22.9574 46.7005 22.9574C33.8043 22.9574 23.3503 33.274 23.3503 46Z" fill="#DC2E07"/>
</svg>
