<svg width="11" height="15" viewBox="0 0 11 15" fill="none" xmlns="http://www.w3.org/2000/svg">
<path d="M5.28 14.2C4.29333 14.2 3.32667 14.06 2.38 13.78C1.44667 13.4867 0.66 13.0867 0.02 12.58L1.14 10.56C1.64667 10.9733 2.26 11.3067 2.98 11.56C3.7 11.8133 4.45333 11.94 5.24 11.94C6.17333 11.94 6.9 11.7533 7.42 11.38C7.94 10.9933 8.2 10.4733 8.2 9.82C8.2 9.18 7.96 8.67333 7.48 8.3C7 7.92667 6.22667 7.74 5.16 7.74H3.88V5.96L7.88 1.2L8.22 2.18H0.7V-9.53674e-07H10.24V1.74L6.24 6.5L4.88 5.7H5.66C7.38 5.7 8.66667 6.08667 9.52 6.86C10.3867 7.62 10.82 8.6 10.82 9.8C10.82 10.5867 10.62 11.3133 10.22 11.98C9.82 12.6467 9.20667 13.1867 8.38 13.6C7.56667 14 6.53333 14.2 5.28 14.2Z" fill="#FF8B66"/>
</svg>
