<svg width="36" height="36" viewBox="0 0 36 36" fill="none" xmlns="http://www.w3.org/2000/svg">
<path fill-rule="evenodd" clip-rule="evenodd" d="M34.2201 9.35429C34.4553 8.57429 34.2201 8 33.0939 8H29.3752C28.4289 8 27.9926 8.49571 27.756 9.04286C27.756 9.04286 25.8648 13.6086 23.186 16.5743C22.319 17.4343 21.9251 17.7071 21.452 17.7071C21.2154 17.7071 20.8598 17.4343 20.8598 16.6529V9.35429C20.8598 8.41714 20.5992 8 19.8115 8H13.9636C13.3729 8 13.0173 8.43429 13.0173 8.84714C13.0173 9.73429 14.3575 9.94 14.4949 12.4371V17.8629C14.4949 19.0529 14.2781 19.2686 13.805 19.2686C12.5442 19.2686 9.47716 14.6814 7.65678 9.43286C7.30403 8.41143 6.94704 8 5.99648 8H2.27497C1.2125 8 1 8.49571 1 9.04286C1 10.0171 2.26081 14.8571 6.87196 21.2586C9.94606 25.63 14.2739 28 18.2164 28C20.5808 28 20.8726 27.4743 20.8726 26.5671V23.2629C20.8726 22.21 21.0964 22 21.8458 22C22.3983 22 23.3432 22.2743 25.5503 24.3814C28.0719 26.88 28.487 28 29.9065 28H33.6251C34.6876 28 35.2203 27.4743 34.9143 26.4343C34.5771 25.4 33.373 23.8986 31.7764 22.1171C30.9095 21.1029 29.609 20.01 29.2137 19.4629C28.6627 18.7614 28.8199 18.4486 29.2137 17.8243C29.2137 17.8243 33.747 11.5014 34.2187 9.35429H34.2201Z" fill="#FF8B66"/>
</svg>
