<svg width="36" height="36" viewBox="0 0 36 36" fill="none" xmlns="http://www.w3.org/2000/svg">
<path d="M30.7564 9.93732C26.2688 2.99977 17.1065 0.937256 10.0011 5.24979C3.08267 9.56232 0.838856 18.9374 5.32649 25.8749L5.70046 26.4374L4.20458 32.0625L9.81412 30.5625L10.3751 30.9375C12.8059 32.25 15.4237 33 18.0415 33C20.8462 33 23.651 32.25 26.0818 30.75C33.0002 26.2499 35.0571 17.0624 30.7564 9.93732ZM26.8297 24.3749C26.0818 25.4999 25.1469 26.2499 23.838 26.4374C23.09 26.4374 22.1551 26.8125 18.4154 25.3124C15.2367 23.8124 12.6189 21.3749 10.749 18.5624C9.62714 17.2499 9.06618 15.5624 8.8792 13.8749C8.8792 12.3748 9.44015 11.0623 10.3751 10.1248C10.749 9.74982 11.123 9.56232 11.497 9.56232H12.4319C12.8059 9.56232 13.1798 9.56232 13.3668 10.3123C13.7408 11.2498 14.6757 13.4999 14.6757 13.6874C14.8627 13.8749 14.8627 14.2499 14.6757 14.4374C14.8627 14.8124 14.6757 15.1874 14.4887 15.3749C14.3018 15.5624 14.1148 15.9374 13.9278 16.1249C13.5538 16.3124 13.3668 16.6874 13.5538 17.0624C14.3018 18.1874 15.2367 19.3124 16.1716 20.2499C17.2935 21.1874 18.4154 21.9374 19.7243 22.4999C20.0983 22.6874 20.4723 22.6874 20.6592 22.3124C20.8462 21.9374 21.7811 20.9999 22.1551 20.6249C22.5291 20.2499 22.7161 20.2499 23.09 20.4374L26.0818 21.9374C26.4558 22.1249 26.8297 22.3124 27.0167 22.4999C27.2037 23.0624 27.2037 23.8124 26.8297 24.3749Z" fill="#FF8B66"/>
</svg>
