<svg width="24" height="24" viewBox="0 0 24 24" fill="none" xmlns="http://www.w3.org/2000/svg">
<path d="M3 5.81641V10.7255H7.90909" stroke="#302827" stroke-width="2" stroke-linecap="round" stroke-linejoin="round"/>
<path d="M21.0009 18.9071V13.998H16.0918" stroke="#302827" stroke-width="2" stroke-linecap="round" stroke-linejoin="round"/>
<path d="M18.9464 9.90716C18.5314 8.73452 17.8262 7.68612 16.8964 6.85977C15.9667 6.03342 14.8428 5.45605 13.6296 5.18155C12.4164 4.90704 11.1534 4.94434 9.95848 5.28997C8.76358 5.6356 7.6757 6.27828 6.79636 7.15806L3 10.7253M21 13.9981L17.2036 17.5653C16.3243 18.4451 15.2364 19.0878 14.0415 19.4334C12.8466 19.7791 11.5836 19.8164 10.3704 19.5419C9.1572 19.2673 8.03329 18.69 7.10356 17.8636C6.17384 17.0373 5.46859 15.9889 5.05364 14.8162" stroke="#302827" stroke-width="2" stroke-linecap="round" stroke-linejoin="round"/>
</svg>
