<svg width="16" height="12" viewBox="0 0 16 12" fill="none" xmlns="http://www.w3.org/2000/svg">
<path d="M3.08975 12V1.6L4.00175 2.544H0.72175V0.799999H5.16975V12H3.08975ZM7.2475 12V10.608L11.6955 6.384C12.0688 6.032 12.3462 5.72267 12.5275 5.456C12.7088 5.18933 12.8262 4.944 12.8795 4.72C12.9435 4.48533 12.9755 4.26667 12.9755 4.064C12.9755 3.552 12.7995 3.15733 12.4475 2.88C12.0955 2.592 11.5782 2.448 10.8955 2.448C10.3515 2.448 9.8555 2.544 9.4075 2.736C8.97017 2.928 8.5915 3.22133 8.2715 3.616L6.8155 2.496C7.25283 1.90933 7.8395 1.456 8.5755 1.136C9.32217 0.805333 10.1542 0.639999 11.0715 0.639999C11.8822 0.639999 12.5862 0.773333 13.1835 1.04C13.7915 1.296 14.2555 1.664 14.5755 2.144C14.9062 2.624 15.0715 3.19467 15.0715 3.856C15.0715 4.21867 15.0235 4.58133 14.9275 4.944C14.8315 5.296 14.6502 5.66933 14.3835 6.064C14.1168 6.45867 13.7275 6.90133 13.2155 7.392L9.3915 11.024L8.9595 10.24H15.5035V12H7.2475Z" fill="#DC2E07"/>
</svg>
