<svg width="92" height="92" viewBox="0 0 92 92" fill="none" xmlns="http://www.w3.org/2000/svg">
<g filter="url(#filter0_d_2180_17557)">
<rect x="23" y="23" width="46" height="46" rx="23" fill="white"/>
<rect x="22.5" y="22.5" width="47" height="47" rx="23.5" stroke="#F5F5F5"/>
</g>
<path d="M37 40H39H55" stroke="#FF8B66" stroke-width="2" stroke-linecap="round" stroke-linejoin="round"/>
<path d="M42 40V38C42 37.4696 42.2107 36.9609 42.5858 36.5858C42.9609 36.2107 43.4696 36 44 36H48C48.5304 36 49.0391 36.2107 49.4142 36.5858C49.7893 36.9609 50 37.4696 50 38V40M53 40V54C53 54.5304 52.7893 55.0391 52.4142 55.4142C52.0391 55.7893 51.5304 56 51 56H41C40.4696 56 39.9609 55.7893 39.5858 55.4142C39.2107 55.0391 39 54.5304 39 54V40H53Z" stroke="#FF8B66" stroke-width="2" stroke-linecap="round" stroke-linejoin="round"/>
<path d="M44 45V51" stroke="#FF8B66" stroke-width="2" stroke-linecap="round" stroke-linejoin="round"/>
<path d="M48 45V51" stroke="#FF8B66" stroke-width="2" stroke-linecap="round" stroke-linejoin="round"/>
<defs>
<filter id="filter0_d_2180_17557" x="0" y="0" width="92" height="92" filterUnits="userSpaceOnUse" color-interpolation-filters="sRGB">
<feFlood flood-opacity="0" result="BackgroundImageFix"/>
<feColorMatrix in="SourceAlpha" type="matrix" values="0 0 0 0 0 0 0 0 0 0 0 0 0 0 0 0 0 0 127 0" result="hardAlpha"/>
<feOffset/>
<feGaussianBlur stdDeviation="11"/>
<feComposite in2="hardAlpha" operator="out"/>
<feColorMatrix type="matrix" values="0 0 0 0 0.0775834 0 0 0 0 0 0 0 0 0 0.204167 0 0 0 0.06 0"/>
<feBlend mode="normal" in2="BackgroundImageFix" result="effect1_dropShadow_2180_17557"/>
<feBlend mode="normal" in="SourceGraphic" in2="effect1_dropShadow_2180_17557" result="shape"/>
</filter>
</defs>
</svg>
