<svg width="16" height="16" viewBox="0 0 16 16" fill="none" xmlns="http://www.w3.org/2000/svg">
<g clip-path="url(#clip0_1560_23821)">
<circle cx="99.5" cy="100.5" r="100.5" fill="white"/>
<path d="M13.5663 8.33781C13.5715 8.8821 13.4664 9.422 13.257 9.92624C13.0588 10.4011 12.765 10.8321 12.3933 11.1937C12.0171 11.5558 11.5681 11.8376 11.0749 12.021C10.005 12.4093 8.82845 12.4093 7.75861 12.021C7.26764 11.8372 6.8203 11.557 6.44414 11.1976C6.06799 10.8382 5.77098 10.4072 5.57143 9.93121C5.45348 9.65056 5.36952 9.35735 5.32128 9.05757H4.27502V12.1881H2.47998V4.49414H4.27502V7.51381H5.33819C5.38741 7.25041 5.46561 6.99299 5.57143 6.74607C5.93035 5.88535 6.60326 5.18595 7.45945 4.7837L7.78735 5.31483L8.30626 6.14214C8.10863 6.2504 7.92955 6.3883 7.77552 6.55083C7.56312 6.77533 7.39774 7.03841 7.28873 7.32519C7.0566 7.97604 7.0566 8.68469 7.28873 9.33554C7.39774 9.62232 7.56312 9.8854 7.77552 10.1099C7.98157 10.3226 8.23012 10.4916 8.50571 10.6063C9.08606 10.8402 9.73729 10.8402 10.3176 10.6063C10.5963 10.4918 10.8482 10.3229 11.058 10.1099C11.273 9.88616 11.4408 9.62299 11.5515 9.33554C11.7837 8.68469 11.7837 7.97604 11.5515 7.32519C11.4408 7.03773 11.273 6.77457 11.058 6.55083C10.9143 6.40164 10.7498 6.27297 10.5695 6.16861L11.0918 5.29828L11.3994 4.8019C11.7668 4.97606 12.1026 5.20803 12.3933 5.48856C12.7642 5.84947 13.0579 6.27925 13.257 6.75269C13.4666 7.25571 13.5718 7.79457 13.5663 8.33781Z" fill="#DC2E07"/>
<path d="M11.5854 2.32031L10.7268 3.7499L10.311 4.44153L10.125 4.75094L9.44724 5.87774L8.74579 4.74598L8.5531 4.43491L8.12378 3.74163L7.24316 2.32031H11.5854Z" fill="#FBB03B"/>
</g>
<defs>
<clipPath id="clip0_1560_23821">
<rect width="16" height="16" fill="white"/>
</clipPath>
</defs>
</svg>
