<svg width="24" height="24" viewBox="0 0 24 24" fill="none" xmlns="http://www.w3.org/2000/svg">
<path d="M7.31852 19.9999H4.72741C4.26927 19.9999 3.8299 19.8208 3.50595 19.502C3.18199 19.1832 3 18.7508 3 18.2999V12.3499C3 11.8991 3.18199 11.4667 3.50595 11.1479C3.8299 10.8291 4.26927 10.65 4.72741 10.65H7.31852M13.3645 8.94996V5.54998C13.3645 4.87369 13.0915 4.22509 12.6055 3.74687C12.1196 3.26866 11.4606 3 10.7733 3L7.31852 10.65V19.9999H17.0611C17.4777 20.0045 17.882 19.8608 18.1994 19.5953C18.5168 19.3298 18.7261 18.9603 18.7885 18.5549L19.9804 10.9049C20.018 10.6613 20.0013 10.4125 19.9315 10.1759C19.8617 9.9392 19.7404 9.72031 19.5761 9.53435C19.4118 9.34838 19.2084 9.1998 18.9799 9.0989C18.7514 8.99799 18.5034 8.94717 18.253 8.94996H13.3645Z" stroke="#FF8B66" stroke-width="2" stroke-linecap="round" stroke-linejoin="round"/>
</svg>
