<svg width="164" height="77" viewBox="0 0 164 77" fill="none" xmlns="http://www.w3.org/2000/svg">
<g clip-path="url(#clip0_1560_23811)">
<path d="M85.4169 46.3654C85.4572 50.559 84.6472 54.7187 83.0337 58.6038C81.5065 62.2626 79.2434 65.5834 76.3791 68.369C73.4806 71.1594 70.0216 73.33 66.2213 74.7432C57.9785 77.7348 48.9132 77.7348 40.6703 74.7432C36.8875 73.3275 33.4409 71.1686 30.5427 68.3995C27.6446 65.6304 25.3562 62.3097 23.8188 58.642C22.91 56.4797 22.2631 54.2206 21.8914 51.9109H13.8303V76.0308H0V16.751H13.8303V40.0167H22.0217C22.4009 37.9872 23.0034 36.0039 23.8188 34.1015C26.5841 27.4699 31.7687 22.0811 38.3654 18.9819L40.8918 23.0741L44.8898 29.4483C43.3672 30.2825 41.9874 31.345 40.8006 32.5972C39.1642 34.3269 37.8899 36.3538 37.05 38.5634C35.2615 43.578 35.2615 49.038 37.05 54.0526C37.8899 56.2622 39.1642 58.2891 40.8006 60.0188C42.3882 61.6578 44.3032 62.9596 46.4265 63.8434C50.898 65.6454 55.9155 65.6454 60.387 63.8434C62.534 62.9611 64.4748 61.6597 66.091 60.0188C67.748 58.295 69.0403 56.2673 69.8936 54.0526C71.6821 49.038 71.6821 43.578 69.8936 38.5634C69.0403 36.3486 67.748 34.321 66.091 32.5972C64.9837 31.4477 63.7167 30.4564 62.3274 29.6523L66.3515 22.9467L68.7216 19.1221C71.5524 20.464 74.1392 22.2513 76.3791 24.4127C79.2373 27.1934 81.4997 30.5047 83.0337 34.1525C84.6488 38.0281 85.459 42.1798 85.4169 46.3654Z" fill="#DC2E07"/>
<path d="M163.815 16.7522H152.238L129.956 53.5439L107.244 16.7012H95.6665V75.9427H108.807V41.076L126.518 69.645H132.834L150.649 40.5661L150.727 75.9937H163.867L163.815 16.7522Z" fill="#DC2E07"/>
<path d="M70.154 0L63.5383 11.0146L60.3347 16.3434L58.9022 18.7273L53.68 27.4089L48.2756 18.6891L46.791 16.2924L43.4831 10.9508L36.6982 0H70.154Z" fill="#FBB03B"/>
</g>
<defs>
<clipPath id="clip0_1560_23811">
<rect width="164" height="77" fill="white"/>
</clipPath>
</defs>
</svg>
