<svg width="120" height="24" viewBox="0 0 120 24" fill="none" xmlns="http://www.w3.org/2000/svg">
<path d="M7.84996 8.05112L10 3.69466L12.15 8.05112C12.3321 8.42005 12.6841 8.67576 13.0912 8.73492L17.8988 9.43351L14.42 12.8245C14.1254 13.1117 13.991 13.5255 14.0605 13.931L14.8818 18.7192L10.5817 16.4585C10.2175 16.267 9.78248 16.267 9.41832 16.4585L5.11825 18.7192L5.93949 13.931C6.00904 13.5255 5.8746 13.1117 5.57999 12.8245L2.10116 9.43351L6.90879 8.73492C7.31593 8.67576 7.66788 8.42005 7.84996 8.05112Z" fill="#FBB03B" stroke="#FBB03B" stroke-width="1.5"/>
<path d="M31.85 8.05112L34 3.69466L36.15 8.05112C36.3321 8.42005 36.6841 8.67576 37.0912 8.73492L41.8988 9.43351L38.42 12.8245C38.1254 13.1117 37.991 13.5255 38.0605 13.931L38.8818 18.7192L34.5817 16.4585C34.2175 16.267 33.7825 16.267 33.4183 16.4585L29.1182 18.7192L29.9395 13.931C30.009 13.5255 29.8746 13.1117 29.58 12.8245L26.1012 9.43351L30.9088 8.73492C31.3159 8.67576 31.6679 8.42005 31.85 8.05112Z" fill="#FBB03B" stroke="#FBB03B" stroke-width="1.5"/>
<path d="M55.85 8.05112L58 3.69466L60.15 8.05112C60.3321 8.42005 60.6841 8.67576 61.0912 8.73492L65.8988 9.43351L62.42 12.8245C62.1254 13.1117 61.991 13.5255 62.0605 13.931L62.8818 18.7192L58.5817 16.4585C58.2175 16.267 57.7825 16.267 57.4183 16.4585L53.1182 18.7192L53.9395 13.931C54.009 13.5255 53.8746 13.1117 53.58 12.8245L50.1012 9.43351L54.9088 8.73492C55.3159 8.67576 55.6679 8.42005 55.85 8.05112Z" fill="#FBB03B" stroke="#FBB03B" stroke-width="1.5"/>
<path d="M79.85 8.05112L82 3.69466L84.15 8.05112C84.3321 8.42005 84.6841 8.67576 85.0912 8.73492L89.8988 9.43351L86.42 12.8245C86.1254 13.1117 85.991 13.5255 86.0605 13.931L86.8818 18.7192L82.5817 16.4585C82.2175 16.267 81.7825 16.267 81.4183 16.4585L77.1182 18.7192L77.9395 13.931C78.009 13.5255 77.8746 13.1117 77.58 12.8245L74.1012 9.43351L78.9088 8.73492C79.3159 8.67576 79.6679 8.42005 79.85 8.05112Z" fill="#FBB03B" stroke="#FBB03B" stroke-width="1.5"/>
<path d="M103.85 8.05112L106 3.69466L108.15 8.05112C108.332 8.42005 108.684 8.67576 109.091 8.73492L113.899 9.43351L110.42 12.8245C110.125 13.1117 109.991 13.5255 110.061 13.931L110.882 18.7192L106.582 16.4585C106.218 16.267 105.782 16.267 105.418 16.4585L101.118 18.7192L101.939 13.931C102.009 13.5255 101.875 13.1117 101.58 12.8245L98.1012 9.43351L102.909 8.73492C103.316 8.67576 103.668 8.42005 103.85 8.05112Z" stroke="#FBB03B" stroke-width="1.5"/>
</svg>
